Coordinates

Units are S.I. units (second, meters, Newtons, ...)
If the header above contains a line with 'inDegrees', this indicates whether rotational values are in degrees (yes) or radians (no).

inDegrees=no
nColumns=21
nRows=24
DataType=double
version=3
OpenSimVersion=4.6-2026-03-31-d6972f9e6
endheader
time	/jointset/ground_pelvis/pelvis_tilt/value	/jointset/ground_pelvis/pelvis_list/value	/jointset/ground_pelvis/pelvis_rotation/value	/jointset/ground_pelvis/pelvis_tx/value	/jointset/ground_pelvis/pelvis_ty/value	/jointset/ground_pelvis/pelvis_tz/value	/jointset/hip_r/hip_flexion_r/value	/jointset/hip_r/hip_adduction_r/value	/jointset/hip_r/hip_rotation_r/value	/jointset/walker_knee_r/knee_angle_r/value	/jointset/patellofemoral_r/knee_angle_r_beta/value	/jointset/ankle_r/ankle_angle_r/value	/jointset/subtalar_r/subtalar_angle_r/value	/jointset/hip_l/hip_flexion_l/value	/jointset/hip_l/hip_adduction_l/value	/jointset/hip_l/hip_rotation_l/value	/jointset/walker_knee_l/knee_angle_l/value	/jointset/patellofemoral_l/knee_angle_l_beta/value	/jointset/ankle_l/ankle_angle_l/value	/jointset/subtalar_l/subtalar_angle_l/value
139.996	-0.0545291472871381	0.01710660939304038	-0.1194258330744603	0.9959771800000684	1.062391060000059	-0.2982865400000203	-0.3327508960000806	-0.07650302844731381	0.04537357362258407	0.4432702161631785	0.4432702200000317	-0.5516516432555917	-0.3415289305128212	0.4833426438273465	-0.01811587657626827	-0.05189571858990576	0.2531117657050016	0.2531117700000134	-0.3256371277004956	-0.1938862988584381
140	-0.04751293851256747	0.01523376973599051	-0.1175942725401961	0.9964043395801471	1.061700934871565	-0.2984668153444345	-0.3324609854486034	-0.07432994534794705	0.05299808383066897	0.4768918327048215	0.4768918359995262	-0.5481670622889341	-0.3580140086884257	0.4726867824743737	-0.01860834255046355	-0.05317967110154068	0.2536659475929506	0.2536659512088973	-0.3302492394396885	-0.1902544162538573
140.004	-0.04052530592521306	0.01343381021981629	-0.1157464395166875	0.9968239997573295	1.060984648534807	-0.2986482947709725	-0.3320513567944651	-0.07220821230481203	0.060538202907964	0.510594218098958	0.5105942208648612	-0.5446907170347486	-0.3742834225122894	0.4621294561599852	-0.0189953160447	-0.05435572786671147	0.2545398509910755	0.2545398539573558	-0.3344706239725863	-0.1867646842103948
140.008	-0.03359434133740976	0.0117774271480284	-0.1138654570074677	0.9972287413881132	1.060216604241226	-0.2988322015449595	-0.3314039569029329	-0.0701882450514096	0.06791076901337034	0.5444571046966447	0.5444571069588844	-0.5412262984223623	-0.390130535160825	0.4517654678249161	-0.01917338135674114	-0.05532117898830722	0.256042899979108	0.2560429023512845	-0.3379203793660965	-0.1835576553369816
140.012	-0.02674733612670139	0.01033104726111669	-0.1119333644440899	0.9976112935115351	1.059372307910191	-0.2990197872518984	-0.3304038953651141	-0.06831859711586025	0.07503514536977141	0.5785579841905036	0.5785579859833874	-0.5377690471886305	-0.405365992925087	0.4416825751985928	-0.01904331595988019	-0.05598343351033136	0.2584643857474345	0.2584643876014046	-0.3402372018923571	-0.1807706217993095
140.016	-0.02001070542165894	0.009154927552233325	-0.1099308266323401	0.9979645816192448	1.058428865258929	-0.2992123268089729	-0.3289407206694588	-0.06664504715720947	0.08183459461799028	0.6129705804205648	0.6129705817845853	-0.5343029523408264	-0.4198245463895107	0.4319588514217039	-0.01851223372394284	-0.05626437421973149	0.2620644886311394	0.2620644900557968	-0.3410889677100161	-0.1785358189421064
140.02	-0.01341012710436183	0.00830151204586088	-0.1078370322545062	0.9982817548918406	1.057365435151781	-0.2994111010393483	-0.326909513583223	-0.06520971487859951	0.08823769224418013	0.6477629060438244	0.6477629070228523	-0.5307992725808481	-0.4333699877252353	0.4226607923604573	-0.01749568913740793	-0.05610377245457918	0.2670664665029798	0.2670664675925251	-0.3401818705582229	-0.1769784368927291
140.024	-0.006970880551821996	0.007814112948823776	-0.10562979090993	0.9985561949351383	1.056163637198368	-0.2996173682159061	-0.3242117629274339	-0.06405023973899385	0.09417974593134606	0.6829949609726059	0.6829949616114663	-0.5272163767431658	-0.4458980616164576	0.413842201572529	-0.01591966144860979	-0.05546150569641478	0.2736502552906467	0.2736502561375003	-0.3372687651715999	-0.1762144227681184
140.028	-0.0007184312312244701	0.007725982855520013	-0.1032858767673279	0.9987815110266551	1.054807905775896	-0.2998323226941245	-0.3207558530496184	-0.06319907952387474	0.09960422202160188	0.7187162891645462	0.7187162895069833	-0.5235007456486364	-0.4573375012470833	0.4055439187250781	-0.01372234782492497	-0.05431849960028067	0.2819476808922136	0.2819476815812333	-0.3321563103067552	-0.1763481036724293
140.032	0.005320765482167538	0.008059803010800006	-0.1007816274213078	0.998951529699733	1.053285788446156	-0.3000570413511634	-0.3164570891839738	-0.06268295667262748	0.1044641567778068	0.7549636073579468	0.7549636074449771	-0.5195889260727573	-0.4676494435684898	0.3977943432007235	-0.01085570301358819	-0.05267639105278289	0.2920394128958081	0.2920394135002445	-0.3247105344865184	-0.1774696818669365
140.036	0.01111844687083603	0.008827538459025794	-0.09809370363378166	0.9990602888921629	1.051588201983339	-0.3002924261823764	-0.3112374704854318	-0.06252240958710099	0.1087234599246312	0.7917585843132764	0.7917585841820125	-0.5154102444209816	-0.4768254154088784	0.390610470441806	-0.007286668727314061	-0.05055588754311833	0.3039536978448968	0.3039536984242034	-0.3148605496036132	-0.1796526615692542
140.04	0.01664397392717144	0.01003057506907996	-0.0951998823854775	0.9991020464601167	1.049709661768007	-0.3005391539525248	-0.3050255231606722	-0.06273137975454467	0.1123579964830899	0.8291057968168127	0.8291057964998643	-0.5108900852748155	-0.4848840713666335	0.3839990752128701	-0.002998049605899406	-0.04799386123874375	0.3176668302336739	0.3176668308329554	-0.3026002284169045	-0.1829512959979202
140.044	0.02186417302298535	0.01166007400853464	-0.09207981207658669	0.9990713100573118	1.047648487412416	-0.3007976394283152	-0.2977563691676499	-0.06331680648097385	0.1153563665564615	0.866990955234996	0.8669909547605094	-0.505953507221828	-0.4918669592776365	0.3779577830724536	0.002010991841658283	-0.04503938660765852	0.3331052611881464	0.3331052618387368	-0.2879877208515313	-0.1873981872805282
140.048	0.02674364615135278	0.01369751130409914	-0.08871571348360806	0.998962892436275	1.045406975313974	-0.301068014126294	-0.2893720713406671	-0.06427825247547594	0.1177203294998992	0.9053795374690164	0.9053795368613041	-0.5005289605587325	-0.4978336676623684	0.3724758861350844	0.007724842408885938	-0.04174907074770071	0.3501491856677074	0.3501491863882809	-0.2711427639389123	-0.1930022066542436
140.052	0.03124555559358403	0.01611538456682708	-0.08509302828976728	0.9987719936033526	1.042991523810154	-0.3013501202503595	-0.2798222533886777	-0.0656076044865118	0.1194648369566247	0.9442159479296709	0.9442159472103085	-0.4945518941660371	-0.5028567146167644	0.3675348144641137	0.01411176235720986	-0.03818207646464337	0.3686373867277256	0.3686373875255982	-0.2522418533771528	-0.1997469161929278
140.056	0.03533285624029218	0.01887806305750935	-0.0812010227521729	0.9984943085799234	1.040412695446627	-0.3016435176735855	-0.2690649843551329	-0.06728888182148694	0.1206176756281055	0.983423271930201	0.9834232711194447	-0.4879680596241144	-0.5070164896425944	0.3631082105620015	0.02112461703084405	-0.03439523554589297	0.3883730669144945	0.3883730677871207	-0.2315114568850284	-0.2075896566200308
140.06	0.03896992566399642	0.02194274317471547	-0.07703335942287493	0.9981261568726087	1.0376852017846	-0.3019475000894484	-0.2570679146516936	-0.06929816422190366	0.1212187597145709	1.022903650572612	1.022903649690953	-0.4807363409340672	-0.5103964951916455	0.3591615829479427	0.02870197197682882	-0.03043862129071397	0.409130364860287	0.4091303657970044	-0.2092195466311885	-0.2164614297965156
140.064	0.0421245310571033	0.0252604708870556	-0.07258864849180768	0.997664627695139	1.034827799224422	-0.302261116385632	-0.2438096558524114	-0.07160364907792177	0.1213191203074081	1.062539255276718	1.062539254346343	-0.472830986291837	-0.5130790950109244	0.3556515298732496	0.03676949461282693	-0.02635189598704504	0.4306612281120672	0.4306612290959765	-0.1856658245196891	-0.2262676809559746
140.068	0.04477003903529909	0.02877721139662134	-0.06787097404420529	0.9971077338233663	1.031863086566282	-0.3025831953245578	-0.2292813667905024	-0.07416586937684837	0.1209796104102415	1.102193809677242	1.102193808723131	-0.464243175529657	-0.5151419521707752	0.3525245775927429	0.04524161847629538	-0.02216167624705826	0.4527023147428278	0.4527023157526409	-0.1611711050257935	-0.2368900630885072
140.072	0.04688766089164358	0.03243496890511703	-0.06289035947584819	0.9964545650386215	1.028817189833238	-0.3029123740630599	-0.2134883635216727	-0.07693812135614742	0.1202693092910709	1.141714633684068	1.141714632734438	-0.4549818453805585	-0.5166552585026911	0.3497158664691598	0.05402343200651454	-0.01788008646988343	0.4749816909808254	0.4749816919926009	-0.1360663627048639	-0.2481891799529514
140.076	0.04846841498493192	0.03617296716457648	-0.05766311269606301	0.9957054292794389	1.025719314755206	-0.3032471318194124	-0.1964514175810834	-0.07986714341344614	0.1192636066128989	1.180935231659362	1.180935230745271	-0.4450736481887073	-0.5176797391444146	0.3471481136063003	0.06301273831905188	-0.01350459714426679	0.4972252237154632	0.4972252247042544	-0.1106819370976702	-0.2600081754012252
140.08	0.04951457620029297	0.0399288853683421	-0.05221200758176663	0.9948619697844588	1.022601163620104	-0.3035858282959921	-0.178207515137367	-0.08289405611511179	0.1180419984993559	1.219678385851068	1.219678385005283	-0.434562011064673	-0.5182654012560186	0.3447311535699484	0.07210222257798338	-0.009019135026697196	0.5191625459321526	0.5191625468736946	-0.085337375152355	-0.2721769998757625
140.084	0.0500405818744447	0.0436401104906497	-0.0465663028736502	0.9939272495451497	1.019496242151388	-0.3039267436897678	-0.1588101031335228	-0.0859555229143944	0.1166857174082333	1.257759590464145	1.257759589719565	-0.4235054520126694	-0.5184510470838235	0.3423620362732139	0.08118166226306865	-0.004396310803643718	0.5405323422110631	0.5405323430836814	-0.0603323884467165	-0.2845172393438162
140.088	0.05007340680777914	0.04724494150093608	-0.04076162304049118	0.9929057959372531	1.016439092283492	-0.3042681157932044	-0.1383288856001684	-0.08898504231448906	0.11527537973386	1.294990641942044	1.294990641329894	-0.4119753622750698	-0.5182645178253069	0.3399255949101534	0.09014010077975136	0.0003994868197773318	0.5610867164401804	0.5610867172269427	-0.03593933755618329	-0.2968473814354754
